<svg width="201" height="200" viewBox="0 0 201 200" fill="none" xmlns="http://www.w3.org/2000/svg">
<path d="M148.743 155.243C179.253 124.733 179.253 75.267 148.743 44.7573C118.233 14.2476 68.7671 14.2476 38.2574 44.7573C7.74766 75.267 7.74766 124.733 38.2574 155.243C68.7671 185.752 118.233 185.752 148.743 155.243Z" fill="#F5F8FF"/>
<path d="M175.624 171.92C181.128 171.92 185.605 167.232 185.605 161.467V34.6246C185.605 28.8609 181.128 24.1719 175.624 24.1719H91.883C86.3791 24.1719 81.9014 28.8594 81.9014 34.6246V161.467C81.9014 167.231 86.3791 171.92 91.883 171.92H175.624Z" fill="#080717"/>
<path d="M90.7615 169.152H169.263C172.783 169.152 175.636 166.299 175.636 162.78L175.636 33.318C175.636 29.7987 172.783 26.9457 169.263 26.9457H90.7615C87.2422 26.9457 84.3893 29.7987 84.3893 33.318L84.3893 162.78C84.3893 166.299 87.2422 169.152 90.7615 169.152Z" fill="white"/>
<path d="M169.263 169.543H90.7615C88.9686 169.541 87.2497 168.827 85.9819 167.56C84.7141 166.292 84.001 164.573 83.999 162.78V33.3176C84.001 31.5246 84.7141 29.8057 85.9819 28.5378C87.2496 27.27 88.9686 26.5568 90.7615 26.5547H169.263C171.057 26.5567 172.776 27.2698 174.044 28.5376C175.311 29.8055 176.025 31.5245 176.027 33.3176V162.78C176.025 164.573 175.311 166.292 174.043 167.56C172.775 168.828 171.056 169.541 169.263 169.543ZM90.7615 27.3359C89.1757 27.3378 87.6554 27.9686 86.5341 29.09C85.4127 30.2114 84.782 31.7318 84.7803 33.3176V162.78C84.782 164.366 85.4128 165.886 86.5341 167.008C87.6554 168.129 89.1757 168.76 90.7615 168.761H169.263C170.849 168.76 172.37 168.129 173.491 167.008C174.613 165.886 175.244 164.366 175.246 162.78V33.3176C175.244 31.7317 174.613 30.2112 173.491 29.0898C172.37 27.9685 170.849 27.3377 169.263 27.3359H90.7615Z" fill="#090817"/>
<path d="M91.7838 154.859H166.749C168.2 154.859 169.376 153.683 169.376 152.233L169.376 33.9914C169.376 32.5408 168.2 31.3648 166.749 31.3648L91.7838 31.3648C90.3332 31.3648 89.1572 32.5408 89.1572 33.9914L89.1572 152.233C89.1572 153.683 90.3332 154.859 91.7838 154.859Z" fill="white"/>
<path d="M166.75 155.252H91.7842C90.9843 155.251 90.2173 154.933 89.6516 154.367C89.0859 153.802 88.7676 153.035 88.7666 152.235V33.9934C88.7676 33.1934 89.0859 32.4266 89.6516 31.861C90.2173 31.2955 90.9843 30.9774 91.7842 30.9766H166.75C167.55 30.9775 168.317 31.2956 168.882 31.8612C169.448 32.4267 169.766 33.1935 169.767 33.9934V152.236C169.766 153.035 169.448 153.802 168.882 154.367C168.316 154.933 167.55 155.251 166.75 155.252ZM91.7842 31.7582C91.1914 31.7587 90.623 31.9944 90.2037 32.4135C89.7844 32.8326 89.5486 33.4009 89.5479 33.9937V152.236C89.5486 152.829 89.7844 153.397 90.2037 153.816C90.623 154.235 91.1914 154.471 91.7842 154.471H166.75C167.343 154.471 167.911 154.235 168.33 153.816C168.749 153.397 168.985 152.829 168.986 152.236V33.9934C168.985 33.4007 168.749 32.8325 168.33 32.4135C167.911 31.9945 167.342 31.7588 166.75 31.7582H91.7842Z" fill="#090817"/>
<path d="M129.399 167.34C132.023 167.34 134.149 165.213 134.149 162.59C134.149 159.966 132.023 157.84 129.399 157.84C126.776 157.84 124.649 159.966 124.649 162.59C124.649 165.213 126.776 167.34 129.399 167.34Z" fill="white"/>
<path d="M129.399 167.727C128.382 167.727 127.388 167.426 126.543 166.861C125.697 166.296 125.038 165.493 124.649 164.554C124.26 163.614 124.158 162.58 124.357 161.583C124.555 160.586 125.045 159.67 125.764 158.951C126.483 158.232 127.399 157.742 128.396 157.544C129.393 157.346 130.427 157.448 131.366 157.837C132.306 158.226 133.109 158.885 133.674 159.73C134.238 160.576 134.54 161.57 134.54 162.587C134.538 163.95 133.996 165.256 133.032 166.22C132.069 167.184 130.762 167.726 129.399 167.727ZM129.399 158.227C128.537 158.227 127.694 158.483 126.977 158.962C126.26 159.441 125.701 160.122 125.371 160.918C125.041 161.715 124.955 162.592 125.123 163.437C125.291 164.283 125.706 165.06 126.316 165.67C126.926 166.279 127.703 166.694 128.548 166.863C129.394 167.031 130.271 166.945 131.067 166.615C131.864 166.285 132.545 165.726 133.024 165.009C133.503 164.292 133.759 163.449 133.759 162.587C133.757 161.431 133.297 160.323 132.48 159.505C131.663 158.688 130.555 158.228 129.399 158.227Z" fill="#090817"/>
<path d="M97.1211 63.543C96.9808 60.7488 97.0476 57.948 97.3211 55.1637C97.4826 53.486 98.0793 51.8796 99.0521 50.5032C100.025 49.1269 101.34 48.0284 102.868 47.3164C104.57 46.5176 106.334 45.8564 108.141 45.3391C120.441 38.9891 135.308 47.893 135.308 61.9016C135.313 65.0036 134.54 68.0573 133.059 70.7832C133.059 70.7832 130.671 76.8961 124.685 80.6106V90.7723H113.053V83.3328C111.845 83.2421 110.646 83.0657 109.464 82.8051C101.812 81.1313 98.6824 74.5988 97.5738 67.8008C97.2735 67.8766 96.9604 67.8871 96.6557 67.8314C96.351 67.7758 96.0618 67.6553 95.8077 67.4782C95.5536 67.301 95.3405 67.0714 95.1829 66.8048C95.0252 66.5382 94.9267 66.2408 94.894 65.9328C94.8612 65.6248 94.895 65.3133 94.9931 65.0195C95.0911 64.7257 95.2512 64.4564 95.4623 64.2298C95.6735 64.0032 95.9309 63.8246 96.2171 63.7061C96.5032 63.5876 96.8115 63.532 97.1211 63.543Z" fill="white"/>
<path d="M124.683 91.1634H113.053C112.949 91.1634 112.85 91.1223 112.777 91.049C112.703 90.9758 112.662 90.8764 112.662 90.7728V83.6935C111.559 83.5936 110.463 83.424 109.381 83.1857C102.81 81.7482 98.7316 76.7232 97.2543 68.249C96.5939 68.2961 95.941 68.0849 95.4332 67.6601C94.9254 67.2353 94.6023 66.63 94.532 65.9716C94.4617 65.3133 94.6497 64.6534 95.0564 64.1309C95.4631 63.6085 96.0567 63.2643 96.7121 63.1709C96.5962 60.4879 96.6701 57.8001 96.9332 55.1275C97.1045 53.3832 97.7265 51.7133 98.7382 50.282C99.7498 48.8507 101.116 47.7071 102.704 46.9634C104.412 46.1608 106.182 45.496 107.996 44.9752C120.586 38.5056 135.698 47.6791 135.698 61.9025C135.699 65.061 134.913 68.17 133.414 70.9498C131.65 74.9807 128.753 78.4123 125.075 80.8275V90.7732C125.075 90.8246 125.065 90.8754 125.045 90.9228C125.025 90.9703 124.996 91.0133 124.96 91.0496C124.924 91.0858 124.88 91.1145 124.833 91.1341C124.785 91.1536 124.735 91.1636 124.683 91.1634ZM113.443 90.3822H124.293V80.6111C124.293 80.5447 124.31 80.4794 124.342 80.4213C124.374 80.3633 124.421 80.3145 124.477 80.2795C130.277 76.6806 132.67 70.7013 132.694 70.6416C134.145 67.9565 134.908 64.9541 134.916 61.9021C134.916 48.1775 120.32 39.4888 108.319 45.6869C106.507 46.2078 104.74 46.8713 103.032 47.6713C101.568 48.3571 100.308 49.4118 99.3746 50.732C98.4414 52.0522 97.8675 53.5924 97.7094 55.2013C97.4363 57.966 97.37 60.7471 97.5109 63.5216C97.514 63.5797 97.5041 63.6377 97.482 63.6915C97.4599 63.7453 97.4262 63.7935 97.3832 63.8326C97.3402 63.8718 97.2891 63.9009 97.2335 63.9179C97.1779 63.935 97.1192 63.9394 97.0617 63.931L97.0453 63.5474V63.9298C96.794 63.9298 96.5455 63.9831 96.3164 64.0863C96.0872 64.1896 95.8826 64.3403 95.7162 64.5286C95.5497 64.7169 95.4252 64.9385 95.3509 65.1785C95.2766 65.4186 95.2541 65.6718 95.2851 65.9212C95.316 66.1706 95.3996 66.4106 95.5304 66.6252C95.6611 66.8399 95.836 67.0243 96.0434 67.1662C96.2508 67.3081 96.486 67.4043 96.7334 67.4484C96.9809 67.4925 97.2348 67.4835 97.4785 67.422C97.531 67.4088 97.5856 67.4067 97.6389 67.4157C97.6923 67.4247 97.7432 67.4447 97.7884 67.4744C97.8336 67.5041 97.8721 67.5429 97.9015 67.5883C97.931 67.6337 97.9507 67.6847 97.9594 67.7381C99.3219 76.0974 103.221 81.0396 109.547 82.4256C110.711 82.6815 111.892 82.8551 113.081 82.9451C113.18 82.9523 113.272 82.9966 113.339 83.0691C113.406 83.1416 113.444 83.2369 113.443 83.3357V90.3822Z" fill="#090817"/>
<path d="M122.408 67.9168C122.408 67.9168 127.949 65.5422 125.376 60.6933C122.804 55.8445 119.769 60.5613 118.648 61.6168C117.526 62.6723 116.471 62.0129 115.679 57.1308C114.887 52.2488 110.929 55.0215 107.632 52.5133C104.335 50.0051 104.615 48.6312 99.9057 49.4664C95.1968 50.3016 92.5874 43.6726 94.8807 40.5086C97.1741 37.3445 102.023 39.3211 104.398 39.9148C106.773 40.5086 110.83 35.1652 115.679 37.0453C118.7 38.2172 119.585 39.1699 122.392 38.8265C125.454 38.4523 125.715 36.3691 128.345 36.0226C132.667 35.4535 138.131 40.2703 137.996 44.1765C137.925 46.2328 136.342 46.8805 136.756 48.623C137.278 50.8238 139.981 50.5344 141.803 53.1746C143.4 55.4894 143.482 58.8387 142.462 61.2215C141.233 64.0926 139.228 63.6336 138.042 66.4332C136.744 69.498 138.707 71.0406 137.581 74.4152C136.504 77.6398 133.664 79.359 132.861 79.8058C129.175 81.8472 122.632 82.3949 120.212 78.3797C118.496 75.5312 119.297 71.1293 122.408 67.9168Z" fill="#080717"/>
<path d="M53.8507 105.902C53.8507 105.902 52.2785 99.9044 51.8554 99.638C51.4324 99.3716 46.2304 95.6825 45.9894 92.0544C45.7484 88.4263 48.348 89.6356 48.348 89.6356C48.348 89.6356 48.8253 85.9466 51.3382 87.3981C51.3382 87.3981 51.816 84.0114 54.7683 85.8259C54.7683 85.8259 52.4246 75.9724 54.0929 75.8259C55.7613 75.6794 58.1988 85.2517 58.1988 85.2517C58.1988 85.2517 61.3796 86.431 62.3785 89.7872C62.9789 91.8155 63.1944 93.9382 63.0136 96.0458L65.5527 102.577C65.5527 102.577 59.6562 109.863 53.8507 105.902Z" fill="white"/>
<path d="M53.631 106.226C53.5537 106.172 53.4983 106.093 53.4748 106.002C52.7717 103.323 51.8916 100.355 51.6084 99.9412C51.0873 99.5858 45.8568 95.9084 45.6017 92.0807C45.433 89.5471 46.6412 88.7877 48.0506 89.1272C48.4502 87.4315 49.4689 86.2045 51.072 86.8342C51.5408 85.2717 52.6677 84.5088 54.2037 85.1033C53.672 82.7252 52.54 77.0725 53.4615 75.7916C53.5285 75.6919 53.6167 75.6083 53.72 75.5469C53.8232 75.4855 53.9388 75.4478 54.0584 75.4365C55.9705 75.2596 58.0478 83.0983 58.5291 84.9654C59.5256 85.4079 60.4171 86.0563 61.145 86.8681C61.8729 87.6798 62.4206 88.6365 62.7521 89.6752C63.3576 91.7229 63.5811 93.8646 63.4115 95.9932L65.9166 102.435C65.9416 102.499 65.9492 102.569 65.9386 102.637C65.9281 102.705 65.8997 102.769 65.8564 102.822C64.775 104.092 63.5009 105.185 62.0806 106.06C59.2716 107.753 56.3076 108.052 53.631 106.226ZM54.1912 105.66C59.1056 108.871 64.1873 103.537 65.1037 102.5C62.4127 95.5795 62.6076 96.1369 62.6252 95.9975C62.7953 93.9434 62.5843 91.8756 62.0029 89.8983C61.0752 86.778 58.0927 85.6287 58.0623 85.6178C58.0032 85.5957 57.9503 85.5596 57.9082 85.5126C57.8661 85.4656 57.836 85.409 57.8205 85.3479C56.5736 80.4557 54.8638 76.2139 54.1427 76.2139H54.1271C53.6748 76.4455 53.7783 79.9697 55.1486 85.7346C55.1667 85.8099 55.162 85.8889 55.1351 85.9615C55.1081 86.0342 55.0602 86.0972 54.9974 86.1425C54.9346 86.1879 54.8598 86.2135 54.7824 86.2162C54.7049 86.2189 54.6285 86.1985 54.5627 86.1576C53.806 85.6932 53.1865 85.5682 52.7205 85.785C51.9201 86.1596 51.7256 87.4397 51.7236 87.4526C51.7145 87.5158 51.6901 87.5758 51.6525 87.6274C51.6148 87.679 51.5651 87.7205 51.5077 87.7485C51.4502 87.7764 51.3868 87.7898 51.323 87.7875C51.2592 87.7852 51.1969 87.7673 51.1416 87.7354C50.6185 87.433 50.192 87.3705 49.842 87.5444C49.1174 87.9014 48.7967 89.2112 48.7338 89.6858C48.7257 89.7465 48.7035 89.8046 48.6689 89.8552C48.6343 89.9058 48.5883 89.9476 48.5345 89.9771C48.4808 90.0066 48.4209 90.023 48.3596 90.0251C48.2983 90.0271 48.2374 90.0147 48.1818 89.9889C48.1756 89.9862 47.3963 89.6373 46.8908 89.9858C46.4849 90.2662 46.3076 90.9725 46.3779 92.028C46.6162 95.6018 52.0076 99.2729 52.0623 99.3069C52.1998 99.3928 52.6095 99.6514 54.1912 105.66Z" fill="#090817"/>
<path d="M57.041 95.6954C56.966 95.6954 56.8925 95.6739 56.8294 95.6333C56.7663 95.5927 56.7162 95.5348 56.6852 95.4665C55.7355 93.3782 57.6562 91.0958 58.475 90.2551C58.3015 90.1467 58.1062 90.078 57.903 90.0542C57.6998 90.0303 57.4939 90.0519 57.3 90.1173C56.1922 90.5153 53.2238 90.6376 53.0902 89.3665C52.9992 88.5071 55.6988 86.479 57.9789 84.927C58.0646 84.8687 58.1699 84.8469 58.2717 84.8663C58.3735 84.8856 58.4634 84.9447 58.5217 85.0303C58.58 85.116 58.6018 85.2213 58.5824 85.3231C58.5631 85.4249 58.504 85.5148 58.4184 85.5731C56.3633 86.9716 54.0738 88.7716 53.875 89.3001C54.0578 89.6024 55.9687 89.7657 57.0352 89.3821C57.4358 89.2578 57.8626 89.2439 58.2705 89.3421C58.6784 89.4403 59.0522 89.6468 59.3523 89.9399C59.3899 89.9775 59.4194 90.0224 59.4391 90.0717C59.4587 90.1211 59.4681 90.174 59.4666 90.2272C59.4651 90.2803 59.4528 90.3325 59.4304 90.3808C59.408 90.429 59.376 90.4721 59.3363 90.5075C59.3074 90.5337 56.4684 93.1016 57.3961 95.143C57.4231 95.2025 57.4348 95.2678 57.4301 95.333C57.4254 95.3981 57.4044 95.461 57.3691 95.516C57.3338 95.5709 57.2852 95.6162 57.2279 95.6475C57.1706 95.6788 57.1063 95.6953 57.041 95.6954ZM51.7164 95.4673C50.3207 95.4673 47.8746 93.5485 47.0805 92.893C47.0409 92.8604 47.0081 92.8202 46.9841 92.7749C46.96 92.7295 46.9451 92.6799 46.9402 92.6288C46.9354 92.5777 46.9406 92.5262 46.9556 92.4771C46.9707 92.428 46.9953 92.3824 47.0279 92.3428C47.0606 92.3033 47.1008 92.2705 47.1461 92.2465C47.1914 92.2224 47.2411 92.2075 47.2921 92.2026C47.3432 92.1977 47.3948 92.203 47.4439 92.218C47.4929 92.2331 47.5385 92.2576 47.5781 92.2903C49.1961 93.6258 51.2379 94.8786 51.8031 94.6864C51.8055 94.1313 50.1316 91.9844 48.0711 89.9102C48.0339 89.8741 48.0043 89.8309 47.9839 89.7832C47.9636 89.7355 47.953 89.6842 47.9527 89.6323C47.9524 89.5805 47.9624 89.5291 47.9822 89.4811C48.002 89.4332 48.0311 89.3897 48.0679 89.3531C48.1047 89.3165 48.1484 89.2876 48.1964 89.2681C48.2445 89.2486 48.2959 89.2389 48.3478 89.2395C48.3996 89.2401 48.4509 89.251 48.4984 89.2716C48.546 89.2922 48.5891 89.322 48.625 89.3594C49.5949 90.336 52.7441 93.6137 52.5734 94.8344C52.5398 95.0301 52.4318 95.2052 52.2721 95.3231C52.1124 95.4411 51.9133 95.4927 51.7164 95.4673Z" fill="#080717"/>
<path d="M51.8253 94.3527C51.7279 94.3212 51.6467 94.2528 51.5993 94.1621C51.5518 94.0715 51.5418 93.9658 51.5714 93.8678C51.6011 93.7699 51.668 93.6874 51.7577 93.6383C51.8475 93.5891 51.953 93.5772 52.0515 93.605C52.3753 93.7019 53.346 93.8753 53.5433 93.4144C53.6882 92.8988 52.3351 89.987 50.9968 87.589C50.9718 87.5442 50.9559 87.4949 50.9499 87.4439C50.944 87.393 50.9481 87.3413 50.9621 87.2919C50.9761 87.2426 50.9997 87.1965 51.0315 87.1562C51.0633 87.116 51.1028 87.0824 51.1476 87.0574C51.1924 87.0323 51.2417 87.0164 51.2927 87.0105C51.3436 87.0045 51.3953 87.0086 51.4446 87.0226C51.494 87.0366 51.5401 87.0602 51.5804 87.0921C51.6206 87.1239 51.6542 87.1633 51.6792 87.2081C52.5929 88.8456 54.6745 92.7589 54.2613 93.7222C53.8894 94.5898 52.7171 94.623 51.8253 94.3527Z" fill="#080717"/>
<path d="M54.7132 92.834C54.2453 92.8131 53.7915 92.6671 53.3992 92.4113C53.3144 92.3547 53.2552 92.2671 53.234 92.1674C53.2129 92.0676 53.2317 91.9636 53.2862 91.8775C53.3408 91.7914 53.4269 91.73 53.5261 91.7064C53.6253 91.6829 53.7297 91.6991 53.8171 91.7515C53.8328 91.7609 54.782 92.3375 55.1062 91.8613C55.4578 91.3496 55.1984 90.4519 55.0695 90.1492C55.0319 90.0546 55.0326 89.9491 55.0716 89.8551C55.1106 89.7611 55.1848 89.686 55.2783 89.6459C55.3718 89.6057 55.4773 89.6036 55.5723 89.6401C55.6673 89.6765 55.7444 89.7486 55.7871 89.841C56.3406 91.1082 56.0875 92.834 54.7132 92.834ZM55.2843 87.7867C55.2021 87.7867 55.1219 87.7607 55.0552 87.7124C54.9886 87.6642 54.9389 87.5961 54.9132 87.5179L54.3972 85.9457C54.3675 85.848 54.3773 85.7425 54.4244 85.6519C54.4715 85.5612 54.5522 85.4927 54.6492 85.4609C54.7463 85.429 54.852 85.4365 54.9436 85.4816C55.0352 85.5268 55.1055 85.606 55.1394 85.7023L55.6554 87.2746C55.6746 87.3332 55.6796 87.3956 55.6701 87.4565C55.6605 87.5175 55.6367 87.5753 55.6005 87.6253C55.5643 87.6752 55.5168 87.7159 55.4618 87.744C55.4069 87.772 55.346 87.7867 55.2843 87.7867Z" fill="#080717"/>
<path d="M111.911 88.3119C108.522 87.6951 103.372 87.3216 98.4189 89.7411C91.7291 93.0087 89.133 99.2978 85.1334 107.634C80.7756 116.631 75.313 125.05 68.8721 132.696L82.1982 142.556C98.4235 128.734 108.999 109.427 111.911 88.3119Z" fill="#5069E5"/>
<path d="M152.885 154.862C152.885 154.862 173.072 142.627 173.666 128.773C174.261 114.919 160.406 106.312 150.312 98.0476C140.219 89.7827 130.081 86.0238 113.578 87.805C97.075 89.5863 96.4816 95.1277 94.5023 102.054C92.523 108.981 92.3242 154.86 92.3242 154.86L152.885 154.862Z" fill="#5069E5"/>
<path d="M125.969 93.1133H111.456V84.9688H125.969V93.1133Z" fill="#5069E5"/>
<path d="M110.292 60.1311C110.191 60.131 110.094 60.0918 110.021 60.0217C109.147 59.1364 108.046 58.508 106.839 58.2049C105.632 57.9019 104.365 57.9358 103.176 58.3029C103.079 58.3392 102.971 58.3354 102.877 58.2923C102.783 58.2492 102.709 58.1704 102.673 58.0733C102.637 57.9761 102.641 57.8685 102.684 57.7741C102.727 57.6798 102.806 57.6064 102.903 57.5701C104.23 57.1514 105.646 57.106 106.997 57.4389C108.348 57.7719 109.581 58.4703 110.561 59.4576C110.618 59.5115 110.657 59.581 110.674 59.6573C110.69 59.7336 110.684 59.8131 110.655 59.8856C110.626 59.9581 110.576 60.0202 110.511 60.0639C110.446 60.1077 110.37 60.1311 110.292 60.1311Z" fill="#080717"/>
<path d="M106.934 71.3875C108.368 71.3875 109.531 70.6283 109.531 69.6918C109.531 68.7553 108.368 67.9961 106.934 67.9961C105.499 67.9961 104.336 68.7553 104.336 69.6918C104.336 70.6283 105.499 71.3875 106.934 71.3875Z" fill="#5069E5"/>
<path d="M122.273 66.6122C122.212 66.6121 122.152 66.5976 122.097 66.5699C122.042 66.5421 121.995 66.5019 121.959 66.4525C121.922 66.403 121.898 66.3458 121.888 66.2853C121.878 66.2248 121.883 66.1628 121.901 66.1043C122.184 65.2176 122.155 64.5313 121.814 64.0649C121.279 63.3329 120.1 63.3122 120.088 63.3122C120.004 63.3121 119.922 63.285 119.855 63.2349C119.788 63.1847 119.738 63.1142 119.714 63.0337C119.69 62.9532 119.692 62.8671 119.721 62.7882C119.75 62.7092 119.803 62.6416 119.873 62.5954L123.545 60.1774C123.588 60.1482 123.636 60.1277 123.687 60.1173C123.738 60.1069 123.79 60.1067 123.841 60.1168C123.892 60.1268 123.94 60.1468 123.983 60.1757C124.026 60.2046 124.063 60.2418 124.092 60.2851C124.12 60.3284 124.14 60.377 124.149 60.4279C124.159 60.4789 124.158 60.5312 124.147 60.5819C124.136 60.6326 124.116 60.6806 124.086 60.7232C124.056 60.7657 124.019 60.8019 123.975 60.8297L121.123 62.7067C122.538 63.1594 123.275 64.3661 122.644 66.3418C122.619 66.4203 122.569 66.4887 122.503 66.5373C122.436 66.5858 122.356 66.612 122.273 66.6122ZM112.216 83.3332C112.211 83.2821 112.216 83.2304 112.231 83.1811C112.246 83.1319 112.27 83.0861 112.303 83.0463C112.335 83.0066 112.376 82.9737 112.421 82.9495C112.466 82.9254 112.516 82.9104 112.567 82.9055C112.608 82.9012 116.721 82.4649 119.478 80.3274C119.56 80.2639 119.664 80.2356 119.767 80.2487C119.87 80.2618 119.963 80.3152 120.027 80.3971C120.09 80.4791 120.118 80.5829 120.105 80.6857C120.092 80.7885 120.039 80.8819 119.957 80.9454C117.019 83.2208 112.822 83.6633 112.645 83.6797C112.542 83.6906 112.439 83.6602 112.359 83.5952C112.278 83.5303 112.227 83.4361 112.216 83.3332Z" fill="#080717"/>
<path d="M92.5387 137.704C92.4855 137.704 92.4329 137.694 92.3841 137.673C92.3352 137.652 92.2911 137.621 92.2546 137.583C92.218 137.544 92.1897 137.498 92.1714 137.448C92.1531 137.398 92.1451 137.345 92.1481 137.292L94.1121 102.033C94.1139 101.981 94.126 101.931 94.1479 101.884C94.1698 101.837 94.2009 101.795 94.2393 101.761C94.2778 101.727 94.3229 101.7 94.3718 101.684C94.4207 101.667 94.4724 101.661 94.5238 101.665C94.6272 101.671 94.7241 101.717 94.7931 101.794C94.8622 101.872 94.8978 101.973 94.8922 102.076L92.9277 137.336C92.9222 137.435 92.8788 137.529 92.8064 137.597C92.7341 137.666 92.6383 137.704 92.5387 137.704ZM156.575 134.072C156.52 134.072 156.465 134.061 156.415 134.038C156.364 134.016 156.319 133.982 156.283 133.941C156.246 133.9 156.218 133.851 156.202 133.799C156.185 133.746 156.18 133.69 156.187 133.635C157.152 125.54 161.061 121.718 161.226 121.559C161.301 121.487 161.401 121.448 161.505 121.45C161.608 121.452 161.707 121.496 161.778 121.571C161.85 121.645 161.889 121.746 161.887 121.849C161.885 121.953 161.841 122.051 161.766 122.123C161.727 122.16 157.891 125.93 156.962 133.728C156.95 133.823 156.905 133.91 156.834 133.973C156.762 134.037 156.67 134.072 156.575 134.072ZM143.133 120.075C143.036 120.075 142.943 120.039 142.871 119.974C142.8 119.909 142.755 119.82 142.745 119.724L140.719 100.304C140.712 100.203 140.744 100.103 140.81 100.026C140.875 99.9484 140.967 99.8993 141.068 99.8888C141.169 99.8783 141.269 99.9073 141.349 99.9697C141.429 100.032 141.481 100.123 141.495 100.223L143.522 119.644C143.528 119.698 143.522 119.753 143.505 119.805C143.488 119.857 143.46 119.905 143.424 119.946C143.387 119.987 143.342 120.019 143.292 120.041C143.242 120.064 143.188 120.075 143.133 120.075Z" fill="white"/>
<path d="M156.056 108.188H117.123C115.905 108.188 114.918 109.175 114.918 110.393V152.654C114.918 153.871 115.905 154.859 117.123 154.859H156.056C157.274 154.859 158.261 153.871 158.261 152.654V110.393C158.261 109.175 157.274 108.188 156.056 108.188Z" fill="#080717"/>
<path d="M97.6975 154.496H133.105C134.026 154.496 134.772 153.749 134.772 152.829V110.218C134.772 109.297 134.026 108.55 133.105 108.55H97.6975C96.7765 108.55 96.0299 109.297 96.0299 110.218V152.829C96.0299 153.749 96.7765 154.496 97.6975 154.496Z" fill="white"/>
<path d="M133.105 154.887H97.6979C97.1522 154.886 96.629 154.669 96.2432 154.283C95.8573 153.897 95.6403 153.374 95.6396 152.829V110.218C95.6404 109.672 95.8575 109.149 96.2433 108.764C96.6291 108.378 97.1522 108.161 97.6979 108.16H133.105C133.651 108.161 134.174 108.378 134.56 108.764C134.945 109.149 135.162 109.672 135.163 110.218V152.829C135.162 153.374 134.945 153.897 134.56 154.283C134.174 154.669 133.651 154.886 133.105 154.887ZM97.6979 108.943C97.3593 108.943 97.0347 109.078 96.7953 109.317C96.5559 109.556 96.4212 109.881 96.4209 110.22V152.829C96.4212 153.167 96.5558 153.492 96.7953 153.731C97.0347 153.971 97.3593 154.105 97.6979 154.105H133.105C133.444 154.105 133.768 153.97 134.008 153.731C134.247 153.492 134.382 153.167 134.382 152.829V110.218C134.382 109.88 134.247 109.555 134.008 109.316C133.768 109.076 133.444 108.942 133.105 108.941L97.6979 108.943Z" fill="#090817"/>
<path d="M110.137 123.184H117.938C118.422 123.184 118.813 122.792 118.813 122.308V109.429C118.813 108.945 118.422 108.554 117.938 108.554H110.137C109.653 108.554 109.262 108.945 109.262 109.429V122.308C109.262 122.792 109.653 123.184 110.137 123.184Z" fill="white"/>
<path d="M117.937 123.571H110.137C109.801 123.571 109.479 123.437 109.241 123.2C109.004 122.962 108.87 122.64 108.87 122.305V109.426C108.871 109.09 109.004 108.769 109.242 108.531C109.479 108.294 109.801 108.16 110.137 108.16H117.937C118.273 108.161 118.595 108.294 118.832 108.531C119.069 108.769 119.203 109.091 119.203 109.426V122.305C119.203 122.64 119.07 122.962 118.832 123.2C118.595 123.437 118.273 123.571 117.937 123.571ZM110.137 108.943C110.008 108.943 109.885 108.994 109.794 109.085C109.703 109.176 109.651 109.299 109.651 109.428V122.306C109.651 122.435 109.703 122.558 109.794 122.649C109.885 122.74 110.008 122.791 110.137 122.791H117.937C118.066 122.791 118.189 122.74 118.28 122.649C118.371 122.558 118.422 122.435 118.422 122.306V109.426C118.422 109.298 118.371 109.174 118.28 109.084C118.189 108.993 118.066 108.942 117.937 108.941L110.137 108.943Z" fill="#090817"/>
<path d="M160.34 152.283C160.624 152.142 161.242 151.834 161.313 151.293C161.379 150.79 160.953 150.233 160.251 149.843C160.251 149.843 162.725 147.828 160.968 146.64C160.968 146.64 163.315 144.956 161.392 143.428C161.392 143.428 162.938 141.564 161.497 140.344C160.056 139.125 154.569 140.624 153.849 141.784C153.129 142.943 155.708 143.526 155.708 143.526C155.708 143.526 152.268 144.925 155.36 146.131C155.36 146.131 151.845 147.39 155.038 149.247C153.755 149.763 153.456 150.211 153.449 150.54C153.423 151.84 157.904 153.497 160.34 152.283Z" fill="white"/>
<path d="M158.291 153.092C154.929 153.092 151.07 150.826 154.235 149.181C152.856 148.122 153.081 146.949 154.463 146.127C153.278 145.393 153.496 144.388 154.698 143.61C154.154 143.436 153.695 143.066 153.408 142.573C152.712 140.908 156.513 139.887 158.154 139.628C159.347 139.44 160.938 139.36 161.748 140.044C162.959 141.069 162.472 142.527 161.916 143.371C162.931 144.392 162.625 145.627 161.567 146.639C162.455 147.608 161.803 148.865 160.882 149.791C161.141 149.956 161.353 150.186 161.496 150.458C161.639 150.73 161.709 151.035 161.699 151.342C161.601 152.088 160.839 152.469 160.515 152.631C159.822 152.963 159.059 153.122 158.291 153.092ZM154.133 142.271C154.289 142.647 155.199 143.007 155.795 143.142C155.876 143.161 155.949 143.205 156.003 143.267C156.057 143.33 156.09 143.408 156.097 143.491C156.104 143.574 156.084 143.656 156.041 143.727C155.998 143.798 155.933 143.853 155.856 143.885C155.27 144.124 154.459 144.645 154.462 144.999C154.462 145.084 154.54 145.39 155.503 145.764C155.577 145.793 155.641 145.844 155.685 145.91C155.73 145.976 155.753 146.054 155.752 146.133C155.751 146.213 155.725 146.29 155.679 146.355C155.633 146.42 155.568 146.469 155.493 146.496C155.146 146.621 154.141 147.104 154.091 147.657C154.059 148.015 154.465 148.459 155.235 148.907C155.298 148.944 155.35 148.998 155.384 149.063C155.418 149.127 155.433 149.2 155.428 149.273C155.423 149.346 155.397 149.416 155.354 149.475C155.311 149.534 155.252 149.58 155.184 149.607C153.913 150.119 153.842 150.479 153.84 150.545C153.837 150.689 154.019 150.974 154.541 151.305C155.987 152.219 158.651 152.69 160.166 151.93C160.38 151.824 160.881 151.573 160.925 151.239C160.967 150.917 160.62 150.492 160.061 150.181C160.005 150.151 159.958 150.106 159.923 150.053C159.888 149.999 159.867 149.938 159.861 149.875C159.855 149.811 159.865 149.747 159.89 149.688C159.915 149.63 159.954 149.578 160.003 149.537C160.349 149.255 161.239 148.365 161.206 147.652C161.192 147.508 161.143 147.37 161.064 147.249C160.984 147.128 160.876 147.029 160.749 146.96C160.697 146.924 160.654 146.877 160.624 146.822C160.594 146.766 160.578 146.705 160.577 146.642C160.576 146.579 160.59 146.517 160.619 146.46C160.647 146.404 160.688 146.356 160.739 146.319C161.017 146.118 161.742 145.447 161.758 144.772C161.747 144.563 161.686 144.358 161.58 144.177C161.474 143.995 161.326 143.842 161.148 143.73C161.108 143.697 161.074 143.657 161.049 143.611C161.024 143.566 161.008 143.516 161.003 143.464C160.997 143.412 161.002 143.36 161.017 143.31C161.032 143.26 161.057 143.214 161.09 143.174C161.143 143.111 162.37 141.591 161.244 140.638C159.911 139.51 153.728 141.299 154.133 142.271Z" fill="#090817"/>
<path d="M160.251 150.232C160.21 150.232 160.573 150.26 154.671 149.779C154.619 149.774 154.57 149.76 154.524 149.737C154.478 149.713 154.438 149.681 154.404 149.642C154.371 149.603 154.346 149.558 154.33 149.509C154.315 149.46 154.309 149.409 154.313 149.357C154.322 149.255 154.372 149.159 154.45 149.092C154.529 149.026 154.631 148.992 154.734 149L160.281 149.452C160.384 149.456 160.482 149.502 160.552 149.578C160.623 149.654 160.66 149.755 160.656 149.859C160.652 149.962 160.607 150.06 160.53 150.13C160.454 150.201 160.353 150.238 160.25 150.234L160.251 150.232ZM161.255 146.789C160.759 146.789 162.973 146.867 155.342 146.519C155.291 146.517 155.241 146.504 155.194 146.483C155.148 146.461 155.106 146.43 155.071 146.392C155.037 146.354 155.01 146.31 154.993 146.262C154.975 146.213 154.967 146.162 154.97 146.111C154.971 146.059 154.983 146.009 155.005 145.962C155.026 145.915 155.057 145.873 155.095 145.838C155.133 145.804 155.178 145.777 155.226 145.76C155.275 145.743 155.327 145.736 155.378 145.739L161.272 146.008C161.323 146.009 161.374 146.02 161.421 146.041C161.468 146.062 161.51 146.091 161.546 146.128C161.581 146.166 161.609 146.209 161.628 146.257C161.646 146.305 161.655 146.356 161.654 146.407C161.653 146.459 161.642 146.509 161.621 146.556C161.6 146.603 161.57 146.645 161.533 146.681C161.496 146.716 161.453 146.744 161.405 146.763C161.357 146.781 161.306 146.79 161.255 146.789V146.789ZM155.708 143.914C155.604 143.915 155.504 143.875 155.43 143.803C155.357 143.73 155.315 143.631 155.314 143.527C155.313 143.424 155.353 143.324 155.426 143.25C155.498 143.176 155.597 143.134 155.701 143.133L161.385 143.035C161.487 143.038 161.584 143.079 161.658 143.15C161.732 143.221 161.776 143.317 161.782 143.419C161.783 143.47 161.774 143.521 161.755 143.569C161.736 143.617 161.708 143.66 161.673 143.697C161.637 143.734 161.595 143.764 161.547 143.784C161.5 143.805 161.45 143.816 161.398 143.816C153.634 143.95 156.267 143.914 155.708 143.914Z" fill="#080717"/>
<path d="M159.036 140.344C159.917 140.344 160.63 139.422 160.63 138.285C160.63 137.148 159.917 136.227 159.036 136.227C158.155 136.227 157.441 137.148 157.441 138.285C157.441 139.422 158.155 140.344 159.036 140.344Z" fill="white"/>
<path d="M159.036 140.734C157.942 140.734 157.051 139.636 157.051 138.285C157.051 136.935 157.941 135.836 159.036 135.836C160.13 135.836 161.021 136.935 161.021 138.285C161.021 139.636 160.13 140.734 159.036 140.734ZM159.036 136.617C158.372 136.617 157.832 137.365 157.832 138.285C157.832 139.205 158.372 139.953 159.036 139.953C159.7 139.953 160.24 139.205 160.24 138.285C160.24 137.366 159.7 136.617 159.036 136.617Z" fill="#090817"/>
<path d="M101.951 46.1524C100.233 46.1524 99.0681 45.7255 98.4841 44.8825C98.2783 44.5524 98.1493 44.1803 98.1065 43.7936C98.0638 43.4069 98.1085 43.0156 98.2373 42.6485C98.2735 42.5515 98.3469 42.4728 98.4411 42.4298C98.5354 42.3868 98.6429 42.383 98.74 42.4192C98.8371 42.4555 98.9158 42.5288 98.9588 42.6231C99.0018 42.7174 99.0056 42.8249 98.9693 42.922C98.8844 43.1724 98.8549 43.4383 98.8826 43.7013C98.9103 43.9643 98.9946 44.2181 99.1298 44.4454C99.5548 45.0528 100.531 45.3735 101.951 45.3735C106.727 45.3735 105.175 51.579 112.872 50.4927C112.923 50.4843 112.975 50.4863 113.026 50.4985C113.076 50.5107 113.124 50.5329 113.166 50.5637C113.208 50.5946 113.243 50.6335 113.27 50.6781C113.296 50.7227 113.314 50.7723 113.321 50.8237C113.328 50.8752 113.325 50.9276 113.312 50.9779C113.299 51.0282 113.276 51.0753 113.244 51.1165C113.212 51.1577 113.172 51.1921 113.127 51.2178C113.082 51.2435 113.032 51.2599 112.981 51.2661C104.938 52.3981 106.035 46.1524 101.951 46.1524ZM120.045 51.0114C112.853 51.0114 111.808 45.6102 111.797 45.5505C111.781 45.4491 111.804 45.3451 111.864 45.2611C111.923 45.1772 112.013 45.12 112.114 45.102C112.216 45.084 112.32 45.1066 112.405 45.165C112.489 45.2234 112.547 45.3128 112.567 45.4138C112.609 45.6481 113.699 51.0813 121.878 50.1173C121.93 50.1106 121.982 50.1141 122.031 50.1277C122.081 50.1413 122.128 50.1647 122.169 50.1964C122.21 50.2282 122.244 50.2677 122.269 50.3127C122.294 50.3578 122.311 50.4074 122.317 50.4587C122.323 50.5101 122.319 50.5621 122.304 50.6118C122.29 50.6615 122.266 50.7079 122.234 50.7483C122.202 50.7887 122.162 50.8223 122.117 50.8471C122.071 50.872 122.021 50.8876 121.97 50.8931C121.331 50.9701 120.688 51.0096 120.045 51.0114ZM129.186 78.0458C129.136 78.0357 129.088 78.0156 129.045 77.9868C129.002 77.9579 128.965 77.9209 128.937 77.8778C128.909 77.8347 128.889 77.7864 128.879 77.7357C128.87 77.6849 128.87 77.6328 128.881 77.5823C128.891 77.5318 128.912 77.4838 128.941 77.4413C128.971 77.3988 129.008 77.3625 129.051 77.3345C129.095 77.3065 129.143 77.2874 129.194 77.2783C129.245 77.2692 129.297 77.2702 129.347 77.2813C133.097 78.0692 135.259 74.0903 133.402 70.3341C131.221 65.92 135.548 63.0235 135.592 62.995C135.679 62.938 135.784 62.9178 135.886 62.9387C135.987 62.9597 136.076 63.0201 136.133 63.1067C136.19 63.1933 136.211 63.299 136.19 63.4006C136.169 63.5021 136.108 63.5912 136.022 63.6481C135.865 63.7509 132.233 66.2001 134.104 69.9876C136.357 74.5497 133.377 78.9294 129.186 78.0458Z" fill="white"/>
<path d="M105.157 77.2983C104.233 77.2598 103.347 76.9164 102.639 76.322C101.931 75.7275 101.439 74.9153 101.24 74.012C101.227 73.9576 101.226 73.901 101.237 73.8461C101.247 73.7911 101.269 73.7391 101.302 73.6935C101.334 73.6479 101.376 73.6098 101.425 73.5818C101.473 73.5538 101.527 73.5365 101.583 73.5312C103.666 73.3309 105.726 72.936 107.736 72.3515C107.787 72.3365 107.841 72.3323 107.894 72.3391C107.947 72.3458 107.998 72.3634 108.044 72.3907C108.09 72.418 108.13 72.4545 108.162 72.4979C108.193 72.5413 108.215 72.5906 108.226 72.6429C108.721 74.896 107.437 77.2983 105.157 77.2983ZM102.132 74.2597C102.817 76.0991 104.756 76.8913 106.018 76.3464C106.932 75.9511 107.691 74.7077 107.531 73.2214C105.762 73.7118 103.956 74.059 102.132 74.2597Z" fill="#080717"/>
<path d="M54.7689 71.6258C56.8769 71.6258 58.5857 69.9169 58.5857 67.809C58.5857 65.701 56.8769 63.9922 54.7689 63.9922C52.661 63.9922 50.9521 65.701 50.9521 67.809C50.9521 69.9169 52.661 71.6258 54.7689 71.6258Z" fill="#080717"/>
<path d="M55.1357 36.0234H54.4029C53.5219 36.0234 52.8076 36.7377 52.8076 37.6187V45.2816C52.8076 46.1627 53.5219 46.877 54.4029 46.877H55.1357C56.0168 46.877 56.7311 46.1627 56.7311 45.2816V37.6187C56.7311 36.7377 56.0168 36.0234 55.1357 36.0234Z" fill="#080717"/>
<path d="M67.4268 65.0289H42.1123L45.6346 48.8426C46.6729 44.0668 50.6092 40.7812 54.9541 40.7812H55.2959C59.2322 40.7812 62.7959 43.75 63.7264 48.0305L67.4268 65.0289Z" fill="white"/>
<path d="M67.4258 65.4199H42.1113C42.0529 65.4199 41.9953 65.4068 41.9427 65.3816C41.89 65.3564 41.8437 65.3198 41.8071 65.2743C41.7705 65.2289 41.7445 65.1758 41.7311 65.119C41.7177 65.0622 41.7172 65.0031 41.7297 64.9461L45.2515 48.7598C46.3062 43.9105 50.3875 40.3906 54.9539 40.3906H55.2961C59.4492 40.3906 63.1551 43.5688 64.1086 47.9473L67.8078 64.9461C67.8202 65.0031 67.8197 65.0623 67.8063 65.1191C67.7929 65.1759 67.7669 65.229 67.7302 65.2745C67.6936 65.3199 67.6472 65.3566 67.5945 65.3818C67.5418 65.4069 67.4842 65.42 67.4258 65.4199ZM42.5965 64.6387H66.941L63.3449 48.1152C62.4699 44.0918 59.0847 41.1734 55.2961 41.1734H54.9531C50.7515 41.1734 46.9918 44.4348 46.0148 48.9277L42.5965 64.6387Z" fill="#090817"/>
<path d="M67.2287 62.2227H42.3088C41.1432 62.2227 40.1982 63.1676 40.1982 64.3332V65.302C40.1982 66.4676 41.1432 67.4125 42.3088 67.4125H67.2287C68.3943 67.4125 69.3393 66.4676 69.3393 65.302V64.3332C69.3393 63.1676 68.3943 62.2227 67.2287 62.2227Z" fill="white"/>
<path d="M67.2295 67.8012H42.3096C41.6468 67.8001 41.0116 67.5364 40.5429 67.0678C40.0743 66.5992 39.8106 65.9639 39.8096 65.3012V64.332C39.8106 63.6693 40.0743 63.034 40.5429 62.5654C41.0116 62.0968 41.6468 61.8331 42.3096 61.832H67.2295C67.8922 61.8331 68.5275 62.0968 68.9961 62.5654C69.4647 63.034 69.7285 63.6693 69.7295 64.332V65.3012C69.7285 65.9639 69.4647 66.5992 68.9961 67.0678C68.5275 67.5364 67.8922 67.8001 67.2295 67.8012ZM42.3096 62.6113C41.854 62.6122 41.4173 62.7935 41.0951 63.1157C40.773 63.4378 40.5916 63.8745 40.5908 64.3301V65.2992C40.5916 65.7548 40.773 66.1915 41.0951 66.5136C41.4173 66.8358 41.854 67.0171 42.3096 67.018H67.2295C67.6851 67.0171 68.1218 66.8358 68.4439 66.5136C68.7661 66.1915 68.9474 65.7548 68.9482 65.2992V64.3301C68.9474 63.8745 68.7661 63.4378 68.4439 63.1157C68.1218 62.7935 67.6851 62.6122 67.2295 62.6113H42.3096Z" fill="#090817"/>
<path d="M64.2953 98.6641C69.7543 106.584 74.0477 112.942 77.0543 117.279C78.9501 119.935 80.517 122.812 81.7207 125.846C83.4164 130.158 85.8164 139.696 82.1984 142.552C80.041 143.848 78.1484 144.251 76.5344 144.214C66.7883 143.995 57.409 127.545 52.5605 103.617L64.2953 98.6641Z" fill="#5069E5"/>
<path d="M82.3661 137.153C82.3136 137.153 82.2617 137.143 82.2135 137.122C82.1652 137.102 82.1215 137.072 82.0851 137.034C82.0486 136.996 82.0201 136.952 82.0013 136.903C81.9825 136.854 81.9737 136.802 81.9755 136.749C82.2591 128.388 78.2337 119.869 78.193 119.784C78.1671 119.737 78.1509 119.686 78.1455 119.633C78.1402 119.58 78.1457 119.526 78.1619 119.476C78.178 119.425 78.2044 119.378 78.2394 119.337C78.2744 119.297 78.3172 119.265 78.3653 119.242C78.4134 119.218 78.4657 119.205 78.519 119.203C78.5723 119.201 78.6254 119.21 78.6751 119.229C78.7249 119.249 78.7701 119.278 78.8082 119.315C78.8462 119.353 78.8761 119.398 78.8962 119.447C78.938 119.534 83.0442 128.226 82.7544 136.776C82.7509 136.877 82.7086 136.972 82.6362 137.043C82.5638 137.113 82.467 137.153 82.3661 137.153Z" fill="white"/>
</svg>
