<svg width="157" height="166" viewBox="0 0 157 166" fill="none" xmlns="http://www.w3.org/2000/svg">
<path d="M156.625 87.0508C156.625 43.9035 121.647 8.92578 78.5 8.92578C35.3528 8.92578 0.375 43.9035 0.375 87.0508C0.375 130.198 35.3528 165.176 78.5 165.176C121.647 165.176 156.625 130.198 156.625 87.0508Z" fill="#F5F8FF"/>
<path d="M67.7895 68.6164C65.3223 66.8622 63.0684 66.1692 60.0941 65.2547C55.2427 63.7792 50.184 63.1007 45.1152 63.2457C46.7406 73.2807 50.3051 82.903 55.6098 91.575C58.6871 96.6118 66.0207 108.309 80.7609 117.445C83.4735 119.124 86.2894 120.631 89.1918 121.956L99.7504 101.128C95.4516 99.1626 91.4358 96.6296 87.8106 93.5965C83.5281 89.9586 79.7587 85.7568 76.6055 81.1059C72.3516 74.7309 72.1723 71.7329 67.7895 68.6164Z" fill="#5069E5"/>
<path d="M101.696 72.0759C100.386 73.9306 75.8055 109.219 85.4934 119.74C87.0285 121.408 90.0285 122.72 92.8789 122.406C94.9395 122.18 99.5727 120.805 105.982 105.875C110.172 96.0334 112.934 85.6439 114.185 75.0212L101.696 72.0759ZM55.1449 53.5748C55.1449 53.5748 65.7719 53.1841 68.3227 59.7201C70.8734 66.256 61.7336 73.188 61.7336 73.188H46.668L44.3633 59.9818L55.1449 53.5748Z" fill="#5069E5"/>
<path d="M65.6123 96.586C64.7506 78.9224 65.1908 70.3009 58.4525 65.7657C57.7532 65.2974 57.0145 64.8906 56.2447 64.5501C55.529 64.2413 54.9185 63.7313 54.4872 63.082C54.0559 62.4327 53.8226 61.6721 53.8154 60.8927V56.631C55.4218 56.2242 56.9858 55.6657 58.4865 54.963C67.7053 50.6661 68.767 38.7974 67.6303 28.2966C67.1054 23.3466 64.8682 18.7354 61.3053 15.2593C57.7423 11.7832 53.0772 9.66053 48.1158 9.25792C42.075 8.10532 35.8228 9.35749 30.6917 12.7476C25.5606 16.1376 21.9564 21.3976 20.647 27.4064C19.3377 33.4152 20.4268 39.6978 23.6822 44.9154C26.9377 50.1329 32.1021 53.8728 38.0748 55.338C38.5373 55.5271 39.0109 55.706 39.4955 55.8747V60.822C39.4703 61.8391 39.1636 62.8292 38.6095 63.6825C38.0555 64.5358 37.2757 65.2188 36.3568 65.6556C36.16 65.7564 35.9658 65.8605 35.7744 65.9681C23.0756 73.0228 20.9951 90.6009 18.8717 108.543C17.6925 118.501 17.5759 128.556 18.524 138.539H69.249C67.0369 120.583 66.0803 106.183 65.6123 96.586Z" fill="white"/>
<path d="M69.2486 138.926H18.5236C18.4261 138.926 18.332 138.89 18.2597 138.825C18.1874 138.759 18.1422 138.669 18.133 138.572C17.1839 128.562 17.3007 118.48 18.4814 108.494C20.6556 90.1255 22.7095 72.7759 35.583 65.6239C35.7778 65.5153 35.9755 65.4096 36.1763 65.3067C37.0301 64.9013 37.7553 64.2678 38.2718 63.4762C38.7882 62.6845 39.0758 61.7656 39.1029 60.8208V56.1481C38.7084 56.0067 38.3216 55.8591 37.9517 55.7083C31.8844 54.214 26.6401 50.4105 23.3352 45.1074C20.0303 39.8044 18.926 33.4207 20.2573 27.3156C21.5886 21.2105 25.2504 15.8663 30.4631 12.4206C35.6758 8.97499 42.0276 7.70019 48.1662 8.86765C53.2202 9.26587 57.9746 11.4237 61.6018 14.9655C65.2291 18.5073 67.4996 23.2089 68.0181 28.252C69.5482 42.388 66.3091 51.7458 58.6509 55.3145C57.2199 55.9834 55.7324 56.5243 54.206 56.9309V60.8915C54.2147 61.595 54.4267 62.2809 54.8166 62.8666C55.2065 63.4522 55.7576 63.9125 56.4033 64.1919C57.193 64.5426 57.951 64.9608 58.6689 65.4419C64.8271 69.5876 65.1552 77.2095 65.7513 91.0462C65.8263 92.7813 65.9052 94.6196 66.0005 96.568C66.6646 110.216 67.8888 124.32 69.6334 138.49C69.6401 138.545 69.6351 138.601 69.6187 138.654C69.6023 138.707 69.5748 138.755 69.5382 138.797C69.5015 138.838 69.4564 138.871 69.406 138.894C69.3555 138.917 69.3008 138.929 69.2455 138.929L69.2486 138.926ZM18.8795 138.145H68.8072C67.0884 124.104 65.8814 110.129 65.2216 96.6036C65.1267 94.6536 65.0474 92.8145 64.9724 91.077C64.3685 77.0536 64.065 70.0126 58.2341 66.0876C57.5535 65.6319 56.8346 65.236 56.0857 64.9044C55.302 64.5636 54.6338 64.0032 54.1616 63.2909C53.6894 62.5786 53.4335 61.7448 53.4248 60.8903V56.6286C53.4247 56.5416 53.4537 56.4571 53.5071 56.3885C53.5606 56.3198 53.6354 56.271 53.7197 56.2497C55.3018 55.8484 56.8424 55.2983 58.3209 54.6067C63.4298 52.2239 69.1248 45.7356 67.2416 28.336C66.7423 23.4709 64.5515 18.9352 61.0511 15.5197C57.5508 12.1041 52.9628 10.0252 48.0869 9.64538C48.0719 9.6442 48.0571 9.64224 48.0423 9.63952C42.1018 8.50676 35.9538 9.73858 30.9083 13.0725C25.8627 16.4065 22.3186 21.5789 21.031 27.4878C19.7434 33.3967 20.8141 39.5748 24.0151 44.7057C27.216 49.8366 32.2941 53.5148 38.1673 54.9563C38.1859 54.9611 38.2042 54.9669 38.222 54.9739C38.6697 55.1567 39.1412 55.3348 39.624 55.5036C39.7005 55.5303 39.7667 55.5802 39.8136 55.6462C39.8605 55.7123 39.8857 55.7913 39.8857 55.8723V60.8196C39.8592 61.9082 39.5322 62.9683 38.9408 63.8827C38.3494 64.797 37.5166 65.53 36.5345 66.0005C36.3416 66.0997 36.1513 66.2014 35.9638 66.3055C23.4396 73.2634 21.4091 90.4204 19.2591 108.585C18.0985 118.398 17.9712 128.305 18.8795 138.145Z" fill="#090817"/>
<path d="M17.1723 132.032C17.1595 136.751 17.4487 141.466 18.0383 146.148C18.8518 152.596 20.2241 158.962 22.1399 165.172H72.4324L69.109 128.102L17.1723 132.032Z" fill="#0C0C0D"/>
<path d="M39.0983 62.7684C39.0983 62.7684 47.1061 71.5215 51.2467 72.2082C55.3873 72.8949 55.56 63.7078 55.56 63.7078C55.56 63.7078 63.7869 65.9316 66.9752 78.8766C70.1635 91.8215 69.2471 132.029 69.2471 132.029L17.2416 136.148L19.444 77.5039C18.1158 77.143 12.7666 75.5414 10.6526 71.0313C7.92677 65.2156 13.9463 57.6063 14.7619 56.5828C18.6811 51.6641 23.8096 49.7691 26.3541 49.0391L28.9713 51.1055C30.0265 51.8287 31.1145 52.503 32.2318 53.1262C34.5301 54.4069 36.944 55.4679 39.4416 56.2949L39.0983 62.7684Z" fill="#5069E5"/>
<path d="M40.6212 66.5188C37.3102 66.0958 30.9376 65.7684 25.1052 69.0684C19.9977 71.959 18.1052 76.3454 15.5407 80.8364C3.87976 101.259 -1.95071 111.471 2.29187 120.39C3.38562 122.691 6.88601 125.703 13.8403 131.635C21.7274 138.362 28.5544 143.471 33.1821 146.791L41.4712 136.735L21.2794 112.545C26.0812 106.539 30.1178 99.9602 33.2962 92.9587C37.0955 84.579 39.5668 75.6589 40.6212 66.5188Z" fill="#5069E5"/>
<path d="M30.9896 41.3125C30.9896 41.3125 25.7127 38.8047 25.7127 33.8738C25.7127 28.943 30.1244 28.6836 30.9896 30.241C31.5927 31.3266 32.2396 32.3703 33.0134 32.375C33.2313 32.3462 33.4408 32.2722 33.6285 32.1579C33.8163 32.0435 33.9781 31.8913 34.1037 31.7109C35.7716 29.7219 34.4943 25.6094 35.4881 23.1469C37.4154 18.3684 48.8267 17.4789 56.0189 16.9184C58.8365 16.6984 63.2845 16.5195 66.3154 13.4102C67.0801 12.6124 67.656 11.6531 68.0006 10.6031C69.4849 6.01836 65.0732 1.0875 59.5365 0.828125C59.5365 0.828125 61.267 4.11172 57.7201 4.11367C54.1732 4.11562 29.2595 5.15391 23.031 10.6902C16.8025 16.2266 18.9939 20.2637 18.9939 20.2637C18.9939 20.2637 10.8049 30.0684 16.9177 42.2949C23.0306 54.5215 38.9193 60.7496 41.4713 54.8672C44.0232 48.9848 37.1029 40.9078 30.9896 41.3125Z" fill="#0C0C0D"/>
<path d="M38.7433 32.3798C38.667 32.3799 38.5923 32.3575 38.5285 32.3156C38.4647 32.2736 38.4146 32.2139 38.3844 32.1438C38.3542 32.0737 38.3452 31.9963 38.3585 31.9211C38.3718 31.8459 38.4069 31.7763 38.4593 31.7209C39.5038 30.5626 40.8469 29.7142 42.3415 29.2685C43.8361 28.8227 45.4245 28.797 46.9328 29.1939C47.0315 29.2252 47.1138 29.2945 47.1615 29.3866C47.2092 29.4786 47.2184 29.5857 47.187 29.6845C47.1557 29.7833 47.0864 29.8656 46.9944 29.9133C46.9024 29.961 46.7952 29.9702 46.6964 29.9388C45.3283 29.5864 43.8897 29.6163 42.5374 30.0252C41.1851 30.434 39.971 31.2062 39.0273 32.2576C38.9908 32.2962 38.9467 32.327 38.8979 32.348C38.8491 32.369 38.7965 32.3799 38.7433 32.3798Z" fill="#0C0C0D"/>
<path d="M65.2318 29.9053C65.1381 29.9053 65.0476 29.8716 64.9767 29.8104C64.0359 28.996 62.8745 28.4792 61.6398 28.3253C60.405 28.1714 59.1523 28.3874 58.0404 28.9459C57.9945 28.969 57.9446 28.9828 57.8934 28.9866C57.8422 28.9904 57.7907 28.9841 57.742 28.9679C57.6932 28.9518 57.6481 28.9263 57.6092 28.8928C57.5704 28.8592 57.5385 28.8184 57.5154 28.7725C57.4923 28.7266 57.4785 28.6767 57.4747 28.6255C57.4709 28.5743 57.4773 28.5228 57.4934 28.4741C57.5095 28.4253 57.535 28.3802 57.5686 28.3414C57.6021 28.3025 57.643 28.2706 57.6888 28.2475C58.9388 27.62 60.3469 27.3774 61.7348 27.5503C63.1228 27.7233 64.4282 28.304 65.4861 29.219C65.5464 29.2711 65.5894 29.3404 65.6092 29.4176C65.629 29.4948 65.6247 29.5762 65.5969 29.651C65.5691 29.7257 65.5191 29.7901 65.4536 29.8355C65.3882 29.881 65.3103 29.9054 65.2306 29.9053H65.2318Z" fill="#0C0C0D"/>
<path d="M52.5699 40.3506H52.484C52.4327 40.3501 52.382 40.3395 52.3348 40.3195C52.2875 40.2994 52.2447 40.2703 52.2088 40.2337C52.1729 40.1971 52.1445 40.1537 52.1253 40.1062C52.1061 40.0586 52.0964 40.0077 52.0969 39.9564C52.0952 39.9045 52.1043 39.8528 52.1236 39.8046C52.1429 39.7565 52.172 39.7128 52.209 39.6764C52.2461 39.64 52.2903 39.6117 52.3388 39.5933C52.3873 39.5749 52.4392 39.5667 52.491 39.5693C53.6348 39.5779 54.9719 39.3494 55.1648 38.9927C55.3262 38.5435 54.2961 35.9631 53.2305 33.84C53.1839 33.7474 53.1759 33.6401 53.2084 33.5417C53.2409 33.4433 53.3111 33.3618 53.4037 33.3152C53.4963 33.2686 53.6036 33.2606 53.702 33.2931C53.8004 33.3256 53.8819 33.3959 53.9285 33.4884C54.6668 34.9591 56.3324 38.4759 55.852 39.3638C55.3641 40.2654 53.3176 40.3506 52.5699 40.3506Z" fill="#0C0C0D"/>
<path d="M42.3669 43.2503C43.9821 43.1549 45.241 42.223 45.1787 41.1688C45.1165 40.1146 43.7566 39.3373 42.1414 39.4327C40.5262 39.5281 39.2673 40.4601 39.3295 41.5143C39.3918 42.5684 40.7516 43.3457 42.3669 43.2503Z" fill="#5069E5"/>
<path d="M63.7614 41.4534C65.3766 41.358 66.6355 40.4261 66.5732 39.3719C66.511 38.3177 65.1511 37.5405 63.5359 37.6359C61.9207 37.7313 60.6618 38.6632 60.7241 39.7174C60.7863 40.7716 62.1462 41.5488 63.7614 41.4534Z" fill="#5069E5"/>
<path d="M31.8943 39.9241C31.8098 39.9241 31.7275 39.8967 31.6599 39.8459C30.2232 38.7522 29.5408 37.6194 29.631 36.4792C29.693 36.0335 29.8421 35.6044 30.07 35.2165C30.2979 34.8286 30.6 34.4893 30.9591 34.2182L27.8279 33.4799C27.7769 33.4692 27.7286 33.4484 27.6857 33.4187C27.6429 33.3891 27.6064 33.3511 27.5785 33.3071C27.5506 33.2632 27.5317 33.214 27.523 33.1627C27.5144 33.1113 27.516 33.0587 27.528 33.008C27.54 32.9573 27.562 32.9095 27.5927 32.8674C27.6234 32.8253 27.6622 32.7898 27.7069 32.7629C27.7515 32.7361 27.8011 32.7184 27.8527 32.711C27.9042 32.7036 27.9568 32.7066 28.0072 32.7198L31.9869 33.6573C32.064 33.6754 32.1339 33.7166 32.1871 33.7754C32.2403 33.8342 32.2743 33.9078 32.2847 33.9863C32.2951 34.0649 32.2813 34.1448 32.2452 34.2154C32.2091 34.286 32.1524 34.3439 32.0826 34.3815C32.0669 34.3901 30.5111 35.2463 30.4103 36.5436C30.3439 37.401 30.924 38.3014 32.1337 39.2237C32.1995 39.273 32.248 39.3418 32.2724 39.4203C32.2968 39.4988 32.2958 39.5829 32.2696 39.6608C32.2434 39.7387 32.1932 39.8064 32.1263 39.8541C32.0594 39.9019 31.9792 39.9273 31.897 39.9268L31.8943 39.9241ZM51.7173 57.1112C49.0384 57.1462 46.3762 56.6842 43.8658 55.7487C43.7718 55.7073 43.6979 55.6306 43.6601 55.5351C43.6223 55.4397 43.6236 55.3332 43.6636 55.2387C43.7037 55.1441 43.7794 55.0692 43.8744 55.0301C43.9693 54.9909 44.0758 54.9908 44.1708 55.0295C47.2452 56.138 50.527 56.5516 53.7802 56.2405C53.8317 56.2353 53.8836 56.2403 53.9331 56.2553C53.9826 56.2704 54.0286 56.2951 54.0684 56.328C54.1083 56.3609 54.1412 56.4015 54.1653 56.4472C54.1893 56.493 54.2041 56.543 54.2087 56.5945C54.2133 56.646 54.2076 56.6979 54.1919 56.7472C54.1763 56.7965 54.151 56.8422 54.1176 56.8816C54.0842 56.9211 54.0433 56.9535 53.9972 56.977C53.9512 57.0005 53.9009 57.0147 53.8494 57.0186C53.1403 57.0799 52.429 57.1108 51.7173 57.1112ZM52.0521 49.4272C50.749 49.4272 49.6892 48.2323 49.6892 46.7635C49.6892 45.2948 50.749 44.0999 52.0521 44.0999C53.3552 44.0999 54.4146 45.2948 54.4146 46.7635C54.4146 48.2323 53.3548 49.4272 52.0521 49.4272ZM52.0521 44.8811C51.1802 44.8811 50.4704 45.7256 50.4704 46.7635C50.4704 47.8014 51.1802 48.6459 52.0521 48.6459C52.924 48.6459 53.6333 47.8014 53.6333 46.7635C53.6333 45.7256 52.924 44.8811 52.0521 44.8811Z" fill="#0C0C0D"/>
<path d="M69.2583 107.836C69.1566 107.836 69.059 107.797 68.986 107.726C68.9131 107.655 68.8706 107.559 68.8677 107.457C68.8657 107.383 68.6622 100.004 68.8579 88.387C69.0497 77.0312 66.2407 73.9913 66.2107 73.9616C66.1398 73.8876 66.1008 73.7887 66.1022 73.6862C66.1035 73.5838 66.1451 73.486 66.2179 73.4139C66.2907 73.3418 66.389 73.3012 66.4914 73.3008C66.5939 73.3005 66.6924 73.3404 66.7657 73.412C66.8915 73.5378 69.8376 76.6276 69.6392 88.4003C69.4439 99.9979 69.6466 107.362 69.6485 107.435C69.6515 107.538 69.6132 107.639 69.5421 107.714C69.4709 107.789 69.3728 107.833 69.2692 107.836H69.2583ZM83.2392 113.221C83.1822 113.221 83.126 113.208 83.0743 113.184C83.0227 113.16 82.9769 113.125 82.9402 113.082C82.9036 113.038 82.8768 112.987 82.8619 112.932C82.847 112.877 82.8443 112.82 82.854 112.764C82.9548 112.178 85.3638 98.3655 88.3568 94.0831C88.4161 93.9981 88.5068 93.9403 88.6088 93.9222C88.7109 93.9041 88.8159 93.9273 88.9009 93.9866C88.9858 94.046 89.0437 94.1367 89.0618 94.2387C89.0799 94.3408 89.0567 94.4458 88.9974 94.5308C86.1036 98.6714 83.6482 112.755 83.6235 112.896C83.6079 112.987 83.5608 113.069 83.4905 113.129C83.4201 113.188 83.3312 113.22 83.2392 113.221ZM17.8903 78.0081C17.8206 78.008 17.7521 77.9893 17.692 77.9538C17.6319 77.9183 17.5824 77.8674 17.5487 77.8063C17.5149 77.7452 17.4982 77.6762 17.5002 77.6065C17.5021 77.5367 17.5227 77.4688 17.5599 77.4097C17.7739 77.069 22.8474 69.0503 26.9013 67.7487C28.5306 67.2257 30.7114 68.8034 33.472 70.7979C38.0208 74.0858 44.2501 78.5893 51.2204 75.7854C51.3159 75.7498 51.4215 75.7528 51.5148 75.794C51.608 75.8351 51.6815 75.9111 51.7196 76.0056C51.7576 76.1002 51.7571 76.2059 51.7183 76.3001C51.6795 76.3943 51.6054 76.4697 51.5118 76.5101C44.1415 79.4741 37.7103 74.8253 33.0142 71.4319C30.5345 69.6397 28.3927 68.0933 27.1396 68.4936C23.3548 69.7073 18.2724 77.7452 18.2216 77.8265C18.1862 77.8823 18.1373 77.9282 18.0794 77.96C18.0214 77.9918 17.9564 78.0083 17.8903 78.0081ZM39.0978 63.1585C39.0292 63.1587 38.9617 63.1406 38.9024 63.1061C36.8321 61.914 35.2403 61.6811 33.5552 61.4351C31.8267 61.1827 30.0396 60.9214 27.7196 59.587C26.4415 58.8519 25.8497 58.0757 25.9618 57.28C26.1919 55.6366 29.4411 54.78 29.8106 54.6901C29.8609 54.6761 29.9135 54.6723 29.9653 54.679C30.0171 54.6856 30.067 54.7026 30.1122 54.7289C30.1573 54.7551 30.1967 54.7902 30.228 54.832C30.2594 54.8737 30.282 54.9214 30.2946 54.972C30.3072 55.0227 30.3095 55.0754 30.3015 55.127C30.2934 55.1785 30.275 55.228 30.2475 55.2724C30.2199 55.3167 30.1838 55.3551 30.1412 55.3853C30.0986 55.4154 30.0503 55.4367 29.9993 55.4479C28.8005 55.7476 26.854 56.539 26.7356 57.3886C26.6747 57.8245 27.1626 58.3651 28.1099 58.912C30.3001 60.1718 31.938 60.4108 33.6688 60.664C35.3524 60.9101 37.0935 61.1643 39.2939 62.4311C39.3685 62.4741 39.4269 62.5404 39.4599 62.62C39.493 62.6995 39.4988 62.7877 39.4765 62.8709C39.4543 62.9541 39.4051 63.0275 39.3368 63.0799C39.2684 63.1323 39.1847 63.1606 39.0985 63.1604L39.0978 63.1585ZM19.0978 110.46C19.0277 110.46 18.9589 110.441 18.8986 110.405C18.8383 110.369 18.7888 110.318 18.7552 110.256C18.7216 110.195 18.7052 110.125 18.7076 110.055C18.7101 109.985 18.7314 109.917 18.7692 109.858L31.2599 90.3561C31.3158 90.2689 31.404 90.2074 31.5053 90.1852C31.6065 90.163 31.7124 90.1819 31.7997 90.2378C31.887 90.2937 31.9485 90.382 31.9707 90.4832C31.9929 90.5844 31.974 90.6903 31.9181 90.7776L19.4271 110.28C19.3917 110.335 19.343 110.38 19.2854 110.412C19.2279 110.443 19.1634 110.46 19.0978 110.46Z" fill="white"/>
<path d="M39.098 134.282C39.0401 134.282 38.983 134.269 38.9307 134.244C38.8784 134.22 38.8323 134.183 38.7957 134.139L20.9187 112.282C17.416 109.707 12.0874 111.074 12.0339 111.088C11.9348 111.112 11.8303 111.096 11.7428 111.043C11.6553 110.991 11.5918 110.907 11.5657 110.808C11.5397 110.71 11.5532 110.605 11.6033 110.516C11.6535 110.427 11.7364 110.362 11.8343 110.333C12.0687 110.271 17.6226 108.849 21.4242 111.684C21.4496 111.703 21.4727 111.725 21.4929 111.749L39.4003 133.644C39.4471 133.701 39.4767 133.771 39.4857 133.844C39.4946 133.917 39.4826 133.992 39.4509 134.059C39.4193 134.125 39.3693 134.182 39.3068 134.221C39.2443 134.261 39.1719 134.282 39.098 134.282ZM18.8363 136.193C18.746 136.193 18.6584 136.162 18.5886 136.105L17.0535 134.844C16.9734 134.778 16.9227 134.683 16.9126 134.58C16.9025 134.477 16.9338 134.374 16.9996 134.294C17.0653 134.214 17.1602 134.163 17.2634 134.153C17.3665 134.143 17.4695 134.174 17.5496 134.24L19.0859 135.501C19.1481 135.552 19.1931 135.621 19.2146 135.699C19.236 135.777 19.233 135.859 19.2058 135.935C19.1787 136.011 19.1287 136.076 19.0629 136.123C18.997 136.169 18.9184 136.194 18.8378 136.194L18.8363 136.193ZM30.1195 149.125C30.0333 149.125 29.9496 149.096 29.8813 149.043C29.8131 148.991 29.7642 148.917 29.7421 148.834C29.7201 148.75 29.7263 148.662 29.7596 148.583C29.793 148.503 29.8516 148.437 29.9265 148.395C35.9308 144.989 42.2269 136.012 42.2898 135.923C42.3187 135.88 42.3558 135.843 42.3992 135.814C42.4425 135.785 42.4912 135.766 42.5422 135.756C42.5933 135.746 42.6458 135.747 42.6966 135.758C42.7474 135.769 42.7955 135.79 42.8382 135.82C42.8808 135.849 42.917 135.887 42.9448 135.931C42.9726 135.975 42.9913 136.024 42.9999 136.075C43.0085 136.127 43.0068 136.179 42.9949 136.23C42.9829 136.28 42.961 136.328 42.9304 136.37C42.6699 136.744 36.4718 145.58 30.3132 149.074C30.2542 149.107 30.1874 149.125 30.1195 149.125ZM33.7011 149.125C33.6088 149.125 33.5193 149.093 33.4486 149.033C33.3779 148.974 33.3305 148.891 33.3149 148.8C33.2993 148.709 33.3165 148.616 33.3634 148.536C33.4103 148.456 33.4838 148.396 33.571 148.366C38.0214 146.795 39.296 144.273 39.3082 144.248C39.3559 144.159 39.4358 144.092 39.5314 144.061C39.6271 144.03 39.7309 144.037 39.8215 144.081C39.9121 144.125 39.9823 144.202 40.0177 144.296C40.053 144.39 40.0507 144.494 40.0113 144.586C39.9562 144.701 38.6117 147.415 33.83 149.102C33.7886 149.117 33.7451 149.125 33.7011 149.125ZM65.8921 165.565C65.7969 165.565 65.7049 165.53 65.6336 165.467C65.5622 165.404 65.5163 165.317 65.5046 165.222L63.6218 149.976C63.6125 149.899 63.626 149.822 63.6609 149.753L67.4265 142.265C67.4731 142.172 67.5546 142.102 67.653 142.069C67.7515 142.037 67.8587 142.045 67.9513 142.092C68.0439 142.138 68.1141 142.22 68.1466 142.318C68.1791 142.417 68.1712 142.524 68.1246 142.616L64.4136 149.999L66.282 165.128C66.2883 165.179 66.2845 165.231 66.2708 165.28C66.2571 165.33 66.2338 165.376 66.2023 165.416C66.1707 165.457 66.1315 165.491 66.0869 165.516C66.0422 165.541 65.9931 165.557 65.9421 165.564C65.9255 165.565 65.9088 165.565 65.8921 165.565Z" fill="white"/>
<path d="M113.33 78.1961C113.33 78.1961 116.912 71.8129 120.862 70.4812C124.811 69.1496 127.842 58.7558 127.015 58.266C126.189 57.7761 124.229 61.5109 124.229 61.5109C124.229 61.5109 125.668 57.6828 124.78 57.3168C123.892 56.9507 121.994 60.9293 121.994 60.9293C121.994 60.9293 123.25 57.8371 122.239 57.5922C121.228 57.3472 119.453 61.3273 119.453 61.3273C119.453 61.3273 120.372 58.632 118.902 58.6945C117.433 58.757 114.555 65.9808 113.086 66.6543C111.616 67.3277 107.024 67.1687 105.493 67.1687C103.962 67.1687 101.697 72.073 101.697 72.073C101.697 72.073 101.299 77.3711 113.33 78.1961Z" fill="white"/>
<path d="M113.33 78.5873H113.303C106.644 78.1295 103.729 76.2826 102.457 74.8119C101.222 73.3854 101.303 72.0994 101.307 72.0451C101.311 71.9986 101.322 71.9531 101.342 71.9108C101.738 71.0541 103.798 66.7795 105.493 66.7795C105.702 66.7795 105.967 66.7823 106.274 66.7858C108.046 66.8061 111.732 66.8463 112.922 66.3006C113.492 66.0397 114.565 64.1604 115.428 62.6498C116.951 59.9823 117.932 58.3452 118.886 58.3057C119.068 58.2883 119.252 58.3176 119.421 58.391C119.589 58.4644 119.735 58.5794 119.847 58.7252C119.957 58.8789 120.033 59.0537 120.072 59.2385C121.244 57.2428 122.015 57.1369 122.331 57.2143C122.45 57.2424 122.56 57.2966 122.655 57.3729C122.75 57.4491 122.827 57.5456 122.88 57.6553C122.972 57.8556 123.019 58.0736 123.018 58.294C123.67 57.3455 124.352 56.7182 124.929 56.9573C125.244 57.0877 125.61 57.5299 125.378 58.9494C125.684 58.4801 126.115 58.1052 126.622 57.8662C126.72 57.8355 126.823 57.8254 126.925 57.8368C127.027 57.8482 127.126 57.8807 127.214 57.9323C127.503 58.1037 127.594 58.4916 127.516 59.2299C127.252 61.7405 124.596 69.6366 120.986 70.8537C117.223 72.1229 113.706 78.3272 113.671 78.3897C113.637 78.4498 113.587 78.4998 113.527 78.5346C113.467 78.5693 113.399 78.5875 113.33 78.5873ZM102.087 72.1616C102.107 72.7147 102.61 77.0053 113.114 77.7897C113.794 76.6323 117.062 71.3506 120.737 70.1116C122.151 69.635 123.661 67.7463 124.99 64.7944C126.294 61.8963 126.849 59.267 126.759 58.6186C126.379 58.7834 125.381 60.1573 124.575 61.6932C124.529 61.7818 124.451 61.8494 124.357 61.8823C124.263 61.9151 124.16 61.9107 124.069 61.8699C123.978 61.829 123.906 61.7549 123.867 61.6627C123.829 61.5705 123.828 61.4673 123.863 61.3741C124.477 59.7412 124.833 58.019 124.63 57.6893C124.227 57.7948 123.178 59.3561 122.347 61.0983C122.305 61.1931 122.227 61.2674 122.131 61.3048C122.034 61.3423 121.926 61.3399 121.832 61.2981C121.737 61.2563 121.663 61.1785 121.625 61.0819C121.588 60.9854 121.59 60.8778 121.632 60.783C121.983 59.9159 122.403 58.435 122.185 58.0096C122.168 57.9764 122.16 57.9744 122.146 57.9705C121.821 57.9315 120.713 59.4592 119.808 61.4862C119.767 61.5772 119.692 61.6489 119.599 61.6864C119.507 61.7239 119.403 61.7245 119.31 61.6879C119.217 61.6514 119.141 61.5805 119.099 61.4899C119.057 61.3993 119.051 61.2959 119.082 61.201C119.295 60.576 119.478 59.5366 119.22 59.1912C119.194 59.1565 119.132 59.0784 118.917 59.0842C118.347 59.108 116.997 61.4713 116.104 63.0354C114.822 65.2803 113.99 66.6682 113.246 67.0088C112.001 67.5799 108.988 67.5948 106.263 67.5651C105.96 67.5616 105.698 67.5588 105.491 67.5588C104.622 67.5616 102.992 70.228 102.087 72.1631V72.1616Z" fill="#090817"/>
<path d="M55.5622 64.097C55.4862 64.097 55.4119 64.0749 55.3484 64.0333C55.2848 63.9917 55.2348 63.9325 55.2043 63.8629C55.1739 63.7933 55.1644 63.7163 55.1771 63.6414C55.1897 63.5665 55.2239 63.4969 55.2755 63.4412C57.8591 60.6505 56.4657 56.8986 56.4513 56.8611C56.416 56.7649 56.42 56.6586 56.4623 56.5653C56.5046 56.472 56.5819 56.399 56.6776 56.3621C56.7732 56.3253 56.8795 56.3275 56.9735 56.3683C57.0675 56.4091 57.1418 56.4852 57.1802 56.5802C57.2466 56.7517 58.7688 60.8181 55.8489 63.972C55.8123 64.0115 55.768 64.043 55.7186 64.0645C55.6693 64.086 55.616 64.0971 55.5622 64.097ZM54.3622 74.7177C54.0044 74.7177 53.7966 74.7025 53.7837 74.7013C53.6815 74.6915 53.5872 74.6418 53.5214 74.563C53.4556 74.4842 53.4234 74.3826 53.4319 74.2803C53.4403 74.1779 53.4888 74.083 53.5667 74.0161C53.6446 73.9492 53.7457 73.9157 53.8481 73.9228C53.931 73.9298 62.1063 74.5146 66.1528 67.5794C66.1782 67.5341 66.2122 67.4943 66.2531 67.4623C66.294 67.4303 66.3409 67.4068 66.391 67.3931C66.4411 67.3795 66.4934 67.3759 66.5448 67.3827C66.5963 67.3895 66.6459 67.4065 66.6907 67.4326C66.7356 67.4588 66.7747 67.4936 66.806 67.5351C66.8372 67.5766 66.8598 67.6239 66.8725 67.6742C66.8853 67.7245 66.8878 67.7769 66.8801 67.8282C66.8723 67.8796 66.8544 67.9289 66.8274 67.9732C63.1759 74.2314 56.3806 74.7177 54.3622 74.7177ZM34.62 18.9834C34.5196 18.9835 34.423 18.9449 34.3502 18.8756C34.2775 18.8064 34.2342 18.7118 34.2294 18.6115C34.2395 17.93 34.3847 17.2573 34.6564 16.6323C34.9282 16.0072 35.3211 15.4423 35.8126 14.9701C37.4962 13.3041 40.2841 12.5677 44.1017 12.7845C48.0149 13.006 52.9642 13.1791 56.5368 12.5451C59.9052 11.9478 61.713 10.7134 62.0642 8.77124C62.0833 8.66996 62.1417 8.58034 62.2266 8.52192C62.3115 8.4635 62.4161 8.44102 62.5175 8.45937C62.619 8.47771 62.709 8.53541 62.7681 8.61987C62.8272 8.70434 62.8505 8.80874 62.8329 8.9103C61.9841 13.6072 54.7142 14.1669 44.0575 13.5646C40.4806 13.3619 37.897 14.0177 36.3751 15.5126C35.5379 16.3169 35.0481 17.4164 35.0102 18.5767C35.0145 18.6801 34.9775 18.781 34.9074 18.8572C34.8373 18.9334 34.7398 18.9786 34.6364 18.983L34.62 18.9834ZM31.4056 18.9837H31.3985C31.2951 18.9819 31.1966 18.9391 31.1246 18.8647C31.0527 18.7902 31.0133 18.6903 31.0149 18.5869C31.0149 18.5298 31.1712 12.8697 36.4274 11.1501C36.5249 11.1212 36.6299 11.1315 36.72 11.1787C36.8101 11.2259 36.8782 11.3064 36.9098 11.4031C36.9414 11.4998 36.9341 11.605 36.8894 11.6963C36.8447 11.7877 36.7661 11.858 36.6704 11.8923C31.9513 13.4365 31.8001 18.39 31.7962 18.6001C31.7943 18.7025 31.7524 18.8001 31.6793 18.8718C31.6063 18.9436 31.508 18.9838 31.4056 18.9837ZM27.4563 49.4306C27.4071 49.4306 27.3583 49.4212 27.3126 49.4029C24.3267 48.2201 21.6829 45.3193 19.6681 41.0138C18.7411 39.035 18.0179 36.9671 17.5095 34.8419C17.4895 34.7415 17.5097 34.6373 17.5659 34.5516C17.622 34.466 17.7095 34.4058 17.8096 34.384C17.9096 34.3622 18.0142 34.3806 18.1009 34.4352C18.1875 34.4898 18.2492 34.5763 18.2727 34.6759C18.2974 34.7888 20.8056 45.9861 27.6001 48.6779C27.6847 48.7113 27.7549 48.7732 27.7988 48.8529C27.8426 48.9325 27.8573 49.025 27.8402 49.1143C27.8232 49.2037 27.7755 49.2842 27.7055 49.3422C27.6354 49.4001 27.5473 49.4318 27.4563 49.4318V49.4306ZM68.4899 132.481C68.3894 132.481 68.2926 132.442 68.2199 132.373C68.1471 132.303 68.1039 132.208 68.0993 132.108L67.4954 119.016C64.6048 117.89 63.8454 114.421 63.6673 113.249L42.8895 114.851C40.3505 121.701 35.979 124.833 35.7919 124.964C35.7071 125.022 35.603 125.044 35.5022 125.025C35.4013 125.007 35.3117 124.95 35.2528 124.866C35.1938 124.782 35.1702 124.678 35.187 124.577C35.2038 124.476 35.2597 124.385 35.3427 124.325C35.3868 124.294 39.8063 121.118 42.2411 114.348C42.2666 114.277 42.3121 114.215 42.3719 114.17C42.4318 114.124 42.5036 114.097 42.5786 114.091L63.9782 112.444C64.0808 112.436 64.1824 112.469 64.2609 112.535C64.3394 112.602 64.3884 112.696 64.3974 112.799C64.4013 112.844 64.8313 117.333 67.9938 118.367C68.0692 118.392 68.1353 118.439 68.1833 118.502C68.2313 118.565 68.259 118.642 68.2626 118.721L68.8786 132.074C68.881 132.125 68.8732 132.176 68.8557 132.225C68.8383 132.273 68.8115 132.317 68.7769 132.355C68.7423 132.393 68.7005 132.424 68.654 132.446C68.6076 132.467 68.5572 132.48 68.506 132.482L68.4899 132.481Z" fill="white"/>
<path d="M116.942 66.9248C116.862 66.9247 116.784 66.9001 116.719 66.8543C116.653 66.8085 116.603 66.7436 116.576 66.6685C116.548 66.5934 116.544 66.5117 116.565 66.4343C116.585 66.357 116.629 66.2878 116.69 66.2361C117.212 65.7939 118.545 62.5037 119.262 60.533C119.279 60.4833 119.305 60.4374 119.339 60.398C119.374 60.3586 119.416 60.3266 119.463 60.3038C119.51 60.281 119.561 60.2678 119.613 60.2652C119.666 60.2625 119.718 60.2704 119.767 60.2883C119.816 60.3063 119.861 60.3339 119.899 60.3696C119.938 60.4052 119.968 60.4482 119.99 60.496C120.011 60.5438 120.023 60.5954 120.024 60.6477C120.025 60.7 120.015 60.752 119.996 60.8005C119.674 61.6841 118.027 66.1267 117.195 66.8318C117.124 66.8917 117.035 66.9246 116.942 66.9248ZM119.454 66.9248C119.378 66.9248 119.303 66.9024 119.24 66.8605C119.176 66.8185 119.126 66.7588 119.095 66.6887C119.065 66.6186 119.056 66.5412 119.07 66.466C119.083 66.3909 119.118 66.3212 119.17 66.2658C120.069 65.315 121.457 61.3466 121.916 59.8986C121.93 59.8477 121.954 59.8001 121.986 59.7587C122.019 59.7172 122.059 59.6828 122.105 59.6575C122.152 59.6322 122.203 59.6164 122.255 59.6113C122.307 59.6061 122.36 59.6116 122.411 59.6274C122.461 59.6432 122.507 59.669 122.547 59.7033C122.587 59.7376 122.62 59.7796 122.643 59.8268C122.667 59.8741 122.68 59.9255 122.683 59.9781C122.686 60.0308 122.679 60.0834 122.661 60.133C122.591 60.3525 120.942 65.5263 119.738 66.8013C119.702 66.8403 119.658 66.8714 119.609 66.8926C119.56 66.9138 119.508 66.9248 119.454 66.9248ZM121.598 67.3533C121.522 67.3533 121.447 67.3308 121.383 67.2887C121.319 67.2465 121.269 67.1866 121.239 67.1162C121.209 67.0459 121.2 66.9682 121.214 66.8929C121.227 66.8176 121.263 66.748 121.316 66.6927C122.586 65.3646 124.136 60.5951 124.152 60.547C124.188 60.4538 124.258 60.3778 124.348 60.3348C124.439 60.2917 124.542 60.2849 124.637 60.3157C124.732 60.3464 124.812 60.4125 124.859 60.5002C124.907 60.5879 124.92 60.6907 124.894 60.7873C124.829 60.9904 123.272 65.7763 121.879 67.2326C121.843 67.2705 121.799 67.3008 121.751 67.3215C121.703 67.3423 121.651 67.3531 121.598 67.3533Z" fill="#0C0C0D"/>
</svg>
