<svg width="58" height="59" viewBox="0 0 58 59" fill="none" xmlns="http://www.w3.org/2000/svg">
<mask id="mask0_2412_11057" style="mask-type:luminance" maskUnits="userSpaceOnUse" x="0" y="0" width="58" height="59">
<path d="M29.0003 58.485C45.0081 58.485 57.985 45.5081 57.985 29.5003C57.985 13.4925 45.0081 0.515625 29.0003 0.515625C12.9925 0.515625 0.015625 13.4925 0.015625 29.5003C0.015625 45.5081 12.9925 58.485 29.0003 58.485Z" fill="white"/>
</mask>
<g mask="url(#mask0_2412_11057)">
<path d="M29.0003 58.485C45.0081 58.485 57.985 45.5081 57.985 29.5003C57.985 13.4925 45.0081 0.515625 29.0003 0.515625C12.9925 0.515625 0.015625 13.4925 0.015625 29.5003C0.015625 45.5081 12.9925 58.485 29.0003 58.485Z" fill="#F7EBDF"/>
</g>
<mask id="mask1_2412_11057" style="mask-type:luminance" maskUnits="userSpaceOnUse" x="0" y="0" width="58" height="59">
<path d="M29.0003 58.485C45.0081 58.485 57.985 45.5081 57.985 29.5003C57.985 13.4925 45.0081 0.515625 29.0003 0.515625C12.9925 0.515625 0.015625 13.4925 0.015625 29.5003C0.015625 45.5081 12.9925 58.485 29.0003 58.485Z" fill="white"/>
</mask>
<g mask="url(#mask1_2412_11057)">
<path d="M33.4704 33.4961H24.3936V45.0732H33.4704V33.4961Z" fill="#FE9592"/>
<path d="M33.4704 33.4961C33.4704 34.4973 33.4984 34.3254 33.5018 34.6419C33.503 34.7778 31.8743 38.0199 28.932 37.9169C26.1068 37.818 24.3936 35.4571 24.3936 35.4602V33.4961H33.4704Z" fill="#E58585"/>
<path d="M28.9315 36.981C32.8718 36.981 36.0661 32.7783 36.0661 27.594C36.0661 22.4097 32.8718 18.207 28.9315 18.207C24.9911 18.207 21.7969 22.4097 21.7969 27.594C21.7969 32.7783 24.9911 36.981 28.9315 36.981Z" fill="#FE9592"/>
<path d="M16.4351 70.4975L5.66211 69.959L8.30411 50.0673C8.26439 46.5899 10.5552 43.6582 13.424 43.7936C13.5247 43.7979 13.6249 43.8067 13.7225 43.8186C16.431 44.1485 18.2852 47.1844 17.9312 50.5205L16.4351 70.4975Z" fill="#70BB90"/>
<path d="M41.6618 70.4935L52.3389 69.8958L49.7202 50.0673C49.7599 46.5899 47.4691 43.6582 44.6003 43.7936C44.4996 43.7979 44.3993 43.8067 44.3018 43.8186C41.5933 44.1485 39.7391 47.1844 40.0931 50.5205L41.6618 70.4935Z" fill="#70BB90"/>
<path d="M49.7199 50.0666C49.3811 43.6868 43.1893 41.6907 42.0249 41.3062C40.2077 40.7061 33.4697 39.4023 33.4697 39.4023C32.4219 40.9171 31.3164 42.1866 30.0245 42.6643L28.7378 45.0731L27.8141 42.6643C26.696 42.4259 25.5443 40.9094 24.3929 39.4023C24.3929 39.4023 17.8159 40.7061 15.9987 41.3062C14.8342 41.6907 8.6425 43.6868 8.3037 50.0666C8.08946 54.1012 16.7845 60.056 16.7845 60.056V72.2581L16.4965 80.7096L29.0118 80.6331L41.5271 80.7096L41.2392 72.2581V60.056C41.2392 60.056 49.9341 54.1013 49.7199 50.0666Z" fill="#664FC4"/>
<path opacity="0.2" d="M41.5277 80.7117L41.1595 69.0531L41.2528 65.0967L41.6954 70.4949L45.1374 70.2719C45.1374 70.2719 41.9608 61.8483 41.0539 51.0156C40.3457 63.4353 27.1174 75.6295 16.4971 80.7118L41.5277 80.7117Z" fill="#231F20"/>
<path opacity="0.2" d="M13.4668 70.3007L17.5686 51.3242L17.0437 63.4353L16.4079 70.4957L13.4668 70.3007Z" fill="#231F20"/>
<path d="M21.928 29.1523C22.4346 29.1523 22.8452 28.4029 22.8452 27.4785C22.8452 26.5541 22.4346 25.8047 21.928 25.8047C21.4214 25.8047 21.0107 26.5541 21.0107 27.4785C21.0107 28.4029 21.4214 29.1523 21.928 29.1523Z" fill="#FE9592"/>
<path d="M35.8069 29.1523C36.3135 29.1523 36.7241 28.4029 36.7241 27.4785C36.7241 26.5541 36.3135 25.8047 35.8069 25.8047C35.3003 25.8047 34.8896 26.5541 34.8896 27.4785C34.8896 28.4029 35.3003 29.1523 35.8069 29.1523Z" fill="#FE9592"/>
<path d="M26.8048 16.4729C26.7652 16.4528 26.7359 16.4141 26.7297 16.3667C26.7198 16.2904 26.7736 16.2206 26.8499 16.2107C29.678 15.8437 30.2668 17.3255 30.2904 17.3887C30.3175 17.4607 30.2809 17.5409 30.209 17.5679C30.137 17.5948 30.0572 17.5585 30.03 17.487C30.0081 17.4305 29.4778 16.1505 26.8857 16.4868C26.8568 16.4906 26.829 16.4852 26.8048 16.4729Z" fill="#511957"/>
<path d="M29.9449 17.848C29.8754 17.8174 29.8329 17.7426 29.8462 17.6644C29.8614 17.5745 30.2442 15.4545 32.2552 14.687C32.3426 14.6536 32.4407 14.6974 32.474 14.7848C32.5073 14.8723 32.4636 14.9703 32.3761 15.0036C30.5438 15.7029 30.1837 17.7012 30.1803 17.7213C30.1646 17.8136 30.077 17.8756 29.9847 17.8599C29.9707 17.8575 29.9573 17.8534 29.9449 17.848Z" fill="#511957"/>
<path d="M28.4758 30.7883C28.2508 30.7883 28.0786 30.7271 27.9639 30.6064C27.7358 30.3661 27.8253 29.9945 27.8684 29.8159L28.2967 28.0382C28.3144 27.9648 28.388 27.9199 28.4614 27.9374C28.5346 27.955 28.5798 28.0288 28.562 28.102L28.1338 29.8798C28.0854 30.0806 28.051 30.3015 28.1619 30.4183C28.2407 30.5013 28.3857 30.5167 28.4914 30.5151C28.5389 30.5144 28.5864 30.5111 28.634 30.508C28.7458 30.5004 28.8614 30.4927 28.9813 30.5128C29.0557 30.5253 29.1058 30.5957 29.0934 30.6701C29.0808 30.7445 29.01 30.7943 28.9361 30.7822C28.8478 30.7674 28.7527 30.7737 28.6522 30.7804C28.6 30.7839 28.5478 30.7873 28.4957 30.7881C28.4891 30.7882 28.4824 30.7883 28.4758 30.7883Z" fill="#231F20"/>
<path d="M25.8939 28.3124C26.1562 28.3124 26.3689 28.0073 26.3689 27.6308C26.3689 27.2544 26.1562 26.9492 25.8939 26.9492C25.6316 26.9492 25.4189 27.2544 25.4189 27.6308C25.4189 28.0073 25.6316 28.3124 25.8939 28.3124Z" fill="#231F20"/>
<path d="M24.2237 26.3454C24.222 26.0854 24.2599 25.8423 24.3793 25.6336C24.3793 25.6336 25.6304 24.8815 26.9006 25.1592C27.0255 25.3697 26.9363 25.7775 26.9363 25.7775C26.9363 25.7775 25.4322 25.6206 24.2237 26.3454Z" fill="#231F20"/>
<path d="M31.2679 28.3124C31.5302 28.3124 31.7429 28.0073 31.7429 27.6308C31.7429 27.2544 31.5302 26.9492 31.2679 26.9492C31.0056 26.9492 30.793 27.2544 30.793 27.6308C30.793 28.0073 31.0056 28.3124 31.2679 28.3124Z" fill="#231F20"/>
<path d="M32.9378 26.3454C32.9395 26.0854 32.9016 25.8423 32.7822 25.6336C32.7822 25.6336 31.5311 24.8815 30.2609 25.1592C30.136 25.3697 30.2252 25.7775 30.2252 25.7775C30.2252 25.7775 31.7293 25.6206 32.9378 26.3454Z" fill="#231F20"/>
<path d="M28.8741 33.1478C27.7711 33.1478 26.8263 32.4819 26.8116 32.4714C26.761 32.435 26.7495 32.3644 26.7859 32.3138C26.8224 32.2632 26.893 32.2516 26.9435 32.288C27.0309 32.3506 29.0976 33.8028 30.5815 32.1279C30.6229 32.0812 30.6943 32.0769 30.741 32.1183C30.7877 32.1596 30.792 32.2311 30.7506 32.2778C30.1671 32.9364 29.4954 33.1478 28.8741 33.1478Z" fill="#231F20"/>
<path d="M24.1877 24.0997C24.2961 24.4257 24.5981 24.6843 24.9316 24.7953C25.3356 24.9299 25.7761 24.8881 26.1953 24.8129C27.4746 24.5835 28.6772 24.0625 29.83 23.4775C30.9739 22.8969 31.9981 22.1506 33.1107 21.5189C33.3097 21.4059 33.5359 21.3257 33.764 21.3443C33.992 21.3629 34.2198 21.4966 34.3028 21.7099C34.4044 21.9711 34.2738 22.2599 34.1437 22.5081C33.9022 22.9684 33.8726 23.3031 34.236 23.6916C34.6995 24.1871 34.9169 24.8642 35.0365 25.5321C35.218 26.5466 34.9095 27.8334 35.5885 28.9079C35.5035 28.3925 35.7259 27.2945 35.8992 26.8155C36.1126 26.2255 36.4448 25.7637 36.7988 25.2528C37.9055 23.6553 39.0805 21.6886 38.9649 19.6686C38.8723 18.0659 37.8804 16.6398 36.488 15.8714C35.012 15.0568 32.5742 14.8698 31.2603 16.0994C30.8107 16.5201 30.3886 17.1028 29.695 16.981C27.6355 16.6195 25.1555 16.4231 23.1952 17.289C21.5628 18.0101 19.8465 19.9681 20.1136 21.8581C20.2167 22.5877 20.8292 23.2667 21.1164 23.953C21.7667 25.5068 21.9921 27.492 22.2231 29.1546C22.203 29.01 22.4709 28.4626 22.5111 28.3149C22.578 28.0699 22.6313 27.8221 22.681 27.5731C22.7606 27.1741 22.8191 26.7745 22.8582 26.3694C22.9438 25.4844 22.9731 24.5653 23.3574 23.7461C23.4419 23.5658 23.7711 22.9934 24.0461 23.1127C24.2749 23.2121 24.136 23.6982 24.1463 23.8847C24.1505 23.9589 24.1647 24.0308 24.1877 24.0997Z" fill="#511957"/>
<path d="M24.3927 38.332C23.549 38.6128 22.7906 39.1317 22.083 40.0475V46.2014C22.083 46.2014 25.3522 42.6437 27.8138 42.6629C25.3096 41.2647 24.2904 38.6205 24.3927 38.332Z" fill="#F9FAFF"/>
<path d="M33.4455 38.332C34.2892 38.6128 35.0476 39.1317 35.7552 40.0475V46.2014C35.7552 46.2014 32.4859 42.6437 30.0244 42.6629C32.5285 41.2647 33.5478 38.6205 33.4455 38.332Z" fill="#F9FAFF"/>
<path d="M28.8234 46.6851C28.9804 46.6201 29.0549 46.4401 28.9899 46.2831C28.9249 46.1262 28.7449 46.0516 28.5879 46.1166C28.431 46.1817 28.3564 46.3616 28.4214 46.5186C28.4865 46.6756 28.6664 46.7501 28.8234 46.6851Z" fill="#F9FAFF"/>
<path d="M29.0092 49.9316C29.0364 49.7639 28.9225 49.6059 28.7548 49.5787C28.5871 49.5514 28.429 49.6653 28.4018 49.833C28.3746 50.0008 28.4885 50.1588 28.6562 50.186C28.8239 50.2132 28.9819 50.0993 29.0092 49.9316Z" fill="#F9FAFF"/>
</g>
</svg>
